simulation
nRows=62
nColumns=15
endheader
time  TH_x TH_y TH_z SC_y  SC_z  SC_x  AC_y  AC_z  AC_x  GH_y  GH_z  GH_yy  EL_x  PS_y
0.000000  0.000000  0.000000  0.000000  -13.883996  -6.977008  1.975396  50.981266  5.436965  -23.674956  34.094951  16.503977  -15.458491  25.017436  86.912802
0.028283  0.000000  0.000000  0.000000  -13.862439  -7.059105  1.976769  51.037304  5.351014  -23.564696  33.675156  16.523798  -15.182682  24.938074  86.928807
0.056566  0.000000  0.000000  0.000000  -13.863987  -7.153141  1.923258  51.101613  5.333629  -23.520062  33.528599  16.659595  -15.114225  24.824161  86.975417
0.084848  0.000000  0.000000  0.000000  -13.887380  -7.252827  1.823615  51.177971  5.375116  -23.523267  33.591788  16.910170  -15.212591  24.683014  87.055216
0.113131  0.000000  0.000000  0.000000  -13.931355  -7.351873  1.694994  51.270566  5.459249  -23.561825  33.801234  17.274327  -15.437248  24.521950  87.170786
0.141414  0.000000  0.000000  0.000000  -13.994650  -7.443989  1.550251  51.383327  5.573149  -23.620545  34.093445  17.750871  -15.747666  24.348285  87.324710
0.169697  0.000000  0.000000  0.000000  -14.076004  -7.522885  1.403623  51.520303  5.702855  -23.685110  34.404934  18.338603  -16.103312  24.169337  87.519571
0.197980  0.000000  0.000000  0.000000  -14.174154  -7.582271  1.267308  51.685485  5.835974  -23.739913  34.672208  19.036329  -16.463655  23.992424  87.757951
0.226263  0.000000  0.000000  0.000000  -14.287839  -7.615858  1.153944  51.882956  5.959737  -23.769592  34.831777  19.842851  -16.788166  23.824861  88.042433
0.254545  0.000000  0.000000  0.000000  -14.415797  -7.617355  1.079543  52.117076  6.058641  -23.760811  34.820153  20.756973  -17.036311  23.673967  88.375600
0.282828  0.000000  0.000000  0.000000  -14.556766  -7.580473  1.051969  52.391699  6.123499  -23.695077  34.573844  21.777499  -17.167561  23.547058  88.760034
0.311111  0.000000  0.000000  0.000000  -14.709350  -7.499230  1.084133  52.710466  6.141574  -23.558561  34.034296  22.903005  -17.145051  23.450769  89.196975
0.339394  0.000000  0.000000  0.000000  -14.869975  -7.372686  1.177827  53.067855  6.117663  -23.357801  33.223335  24.128368  -16.991631  23.380626  89.665787
0.367677  0.000000  0.000000  0.000000  -15.033294  -7.203998  1.324756  53.450829  6.071770  -23.115372  32.228183  25.445457  -16.778734  23.323114  90.128040
0.395960  0.000000  0.000000  0.000000  -15.193908  -6.996443  1.521468  53.846489  6.020276  -22.857426  31.137961  26.846053  -16.579204  23.264456  90.544785
0.424242  0.000000  0.000000  0.000000  -15.346420  -6.753298  1.759571  54.241696  5.983615  -22.607226  30.041788  28.321938  -16.465883  23.190877  90.877073
0.452525  0.000000  0.000000  0.000000  -15.485455  -6.477885  2.038233  54.624027  5.976005  -22.392290  29.027655  29.864788  -16.510557  23.088786  91.086540
0.480808  0.000000  0.000000  0.000000  -15.606827  -6.175690  2.350443  54.987673  6.007252  -22.222412  28.130077  31.461419  -16.734998  22.953367  91.162362
0.509091  0.000000  0.000000  0.000000  -15.708023  -5.855254  2.696980  55.337057  6.067413  -22.091949  27.308071  33.091780  -17.090367  22.792194  91.132604
0.537374  0.000000  0.000000  0.000000  -15.786655  -5.525346  3.073846  55.677021  6.149430  -21.990978  26.514953  34.735299  -17.522491  22.613777  91.028266
0.565657  0.000000  0.000000  0.000000  -15.840338  -5.194739  3.474077  56.012191  6.248709  -21.907934  25.704039  36.371407  -17.977197  22.426625  90.880352
0.593939  0.000000  0.000000  0.000000  -15.866692  -4.872192  3.894291  56.347344  6.357737  -21.833329  24.828708  37.979535  -18.400380  22.239246  90.719862
0.622222  0.000000  0.000000  0.000000  -15.866475  -4.562858  4.337349  56.683066  6.470836  -21.762935  23.867832  39.540180  -18.764764  22.059147  90.577585
0.650505  0.000000  0.000000  0.000000  -15.848325  -4.262813  4.818001  57.009348  6.590104  -21.703622  22.864347  41.036511  -19.110497  21.891326  90.483782
0.678788  0.000000  0.000000  0.000000  -15.822100  -3.966728  5.355410  57.314810  6.716675  -21.665339  21.871096  42.452110  -19.488156  21.740393  90.468631
0.707071  0.000000  0.000000  0.000000  -15.797655  -3.669278  5.967710  57.588164  6.852543  -21.657461  20.940922  43.770559  -19.948316  21.610955  90.562308
0.735354  0.000000  0.000000  0.000000  -15.784849  -3.365135  6.673655  57.818369  6.999251  -21.689809  20.126668  44.975441  -20.541552  21.507622  90.794993
0.763636  0.000000  0.000000  0.000000  -15.792519  -3.049410  7.487667  57.998457  7.156407  -21.767765  19.467051  46.055041  -21.303498  21.433633  91.185135
0.791919  0.000000  0.000000  0.000000  -15.824734  -2.719267  8.402126  58.139298  7.315464  -21.874052  18.934600  47.019672  -22.199793  21.385811  91.696241
0.820202  0.000000  0.000000  0.000000  -15.884166  -2.372469  9.403433  58.256780  7.465015  -21.984892  18.482478  47.886097  -23.175588  21.359100  92.275738
0.848485  0.000000  0.000000  0.000000  -15.973487  -2.006779  10.477707  58.366441  7.593731  -22.076108  18.063846  48.671079  -24.176034  21.348445  92.871052
0.876768  0.000000  0.000000  0.000000  -16.095370  -1.619962  11.611056  58.483401  7.690071  -22.123128  17.631863  49.391380  -25.146282  21.348791  93.429609
0.905051  0.000000  0.000000  0.000000  -16.252167  -1.210280  12.791189  58.620856  7.743131  -22.103865  17.144055  50.062492  -26.035598  21.355592  93.903508
0.933333  0.000000  0.000000  0.000000  -16.443331  -0.780525  14.013970  58.778059  7.755494  -22.019491  16.597640  50.688358  -26.830687  21.368947  94.287361
0.961616  0.000000  0.000000  0.000000  -16.666764  -0.335909  15.281361  58.947216  7.735628  -21.884820  16.011031  51.266755  -27.538237  21.391433  94.598471
0.989899  0.000000  0.000000  0.000000  -16.920355  0.118334  16.596406  59.120759  7.691314  -21.715579  15.402836  51.795403  -28.165127  21.425651  94.854356
1.018182  0.000000  0.000000  0.000000  -17.201994  0.576971  17.960865  59.291273  7.631588  -21.527107  14.791665  52.272019  -28.718233  21.474202  95.072532
1.046465  0.000000  0.000000  0.000000  -17.509464  1.034951  19.377084  59.451917  7.564670  -21.334872  14.195357  52.694243  -29.204298  21.539778  95.270358
1.074747  0.000000  0.000000  0.000000  -17.838404  1.490995  20.842285  59.600917  7.493643  -21.141981  13.616060  53.058053  -29.627323  21.626943  95.461914
1.103030  0.000000  0.000000  0.000000  -18.182453  1.947341  22.354523  59.741343  7.411844  -20.942622  13.041270  53.357882  -29.988753  21.742013  95.658229
1.131313  0.000000  0.000000  0.000000  -18.535173  2.406363  23.906457  59.875910  7.316859  -20.727756  12.457922  53.588101  -30.289933  21.891367  95.870210
1.159596  0.000000  0.000000  0.000000  -18.890125  2.870432  25.490492  60.007133  7.206453  -20.488109  11.852953  53.743081  -30.532209  22.081386  96.108769
1.187879  0.000000  0.000000  0.000000  -19.240960  3.341848  27.113445  60.138161  7.065866  -20.221604  11.213527  53.817276  -30.716970  22.318336  96.384624
1.216162  0.000000  0.000000  0.000000  -19.587334  3.817802  28.757885  60.266407  6.902458  -19.919453  10.542587  53.810544  -30.848579  22.600656  96.695591
1.244444  0.000000  0.000000  0.000000  -19.938669  4.287183  30.422778  60.383743  6.711402  -19.590452  9.868703  53.731535  -30.936231  22.914071  97.018520
1.272727  0.000000  0.000000  0.000000  -20.305278  4.738123  32.101555  60.481148  6.493084  -19.241888  9.222793  53.589700  -30.989562  23.243140  97.328340
1.301010  0.000000  0.000000  0.000000  -20.697476  5.158753  33.787935  60.549673  6.247895  -18.881650  8.635775  53.394494  -31.018209  23.572423  97.599980
1.329293  0.000000  0.000000  0.000000  -21.125570  5.537207  35.476277  60.580476  5.975927  -18.518414  8.138558  53.155369  -31.031808  23.886481  97.808376
1.357576  0.000000  0.000000  0.000000  -21.592992  5.866411  37.153668  60.568728  5.677784  -18.159647  7.751872  52.880663  -31.038221  24.173004  97.937491
1.385859  0.000000  0.000000  0.000000  -22.083056  6.153303  38.777625  60.520672  5.362027  -17.803885  7.466661  52.575464  -31.040125  24.428836  97.997694
1.414141  0.000000  0.000000  0.000000  -22.575413  6.407371  40.321984  60.445245  5.019474  -17.458147  7.268451  52.244263  -31.039252  24.652482  98.004160
1.442424  0.000000  0.000000  0.000000  -23.049715  6.638104  41.734548  60.349850  4.663252  -17.115904  7.142765  51.891553  -31.037336  24.842450  97.972065
1.470707  0.000000  0.000000  0.000000  -23.485615  6.854990  42.968871  60.242046  4.301093  -16.772787  7.075130  51.521829  -31.036109  24.997248  97.916582
1.498990  0.000000  0.000000  0.000000  -23.862692  7.065278  44.002671  60.128478  3.923838  -16.437147  7.052735  51.140683  -31.037585  25.115538  97.852714
1.527273  0.000000  0.000000  0.000000  -24.160128  7.263913  44.797134  60.005571  3.560827  -16.115669  7.071925  50.759755  -31.045325  25.196844  97.794511
1.555556  0.000000  0.000000  0.000000  -24.356968  7.441632  45.358274  59.868447  3.210855  -15.839837  7.132174  50.392751  -31.063415  25.240982  97.755696
1.583838  0.000000  0.000000  0.000000  -24.432256  7.589170  45.657778  59.711553  2.902449  -15.623979  7.232957  50.053380  -31.095946  25.247769  97.749993
1.612121  0.000000  0.000000  0.000000  -24.365039  7.697262  45.687044  59.530209  2.646988  -15.492162  7.373749  49.755351  -31.147006  25.217021  97.791128
1.640404  0.000000  0.000000  0.000000  -24.137745  7.756850  45.427242  59.320344  2.465397  -15.459413  7.554071  49.511308  -31.220456  25.148679  97.890208
1.668687  0.000000  0.000000  0.000000  -23.769746  7.761140  44.905484  59.087606  2.348266  -15.524682  7.773930  49.322299  -31.317688  25.044028  98.029800
1.696970  0.000000  0.000000  0.000000  -23.303151  7.704733  44.144619  58.842817  2.295570  -15.660604  8.033631  49.182233  -31.438569  24.905184  98.174900
1.725253  0.000000  0.000000  0.000000  -22.780404  7.582251  43.179245  58.597090  2.297335  -15.845697  8.333484  49.084915  -31.582943  24.734272  98.290246
